<?xml version="1.0" standalone="no"?>
<!DOCTYPE svg PUBLIC "-//W3C//DTD SVG 20010904//EN"
 "http://www.w3.org/TR/2001/REC-SVG-20010904/DTD/svg10.dtd">
<svg version="1.0" xmlns="http://www.w3.org/2000/svg"
 width="1008.000000pt" height="358.000000pt" viewBox="0 0 1008.000000 358.000000"
 preserveAspectRatio="xMidYMid meet">

<g transform="translate(0.000000,358.000000) scale(0.100000,-0.100000)"
fill="#000000" stroke="none">
<path d="M6415 3555 c-323 -72 -582 -353 -656 -710 -17 -84 -19 -153 -19
-1020 0 -555 -4 -954 -10 -990 -29 -180 -179 -336 -337 -352 l-53 -6 0 -233 0
-234 51 0 c75 0 184 28 274 69 190 89 358 277 435 489 58 159 60 189 60 923
l0 669 150 0 150 0 0 235 0 235 -150 0 -150 0 0 28 c0 46 28 150 55 201 39 78
127 166 203 203 61 30 76 33 179 37 l113 3 0 234 0 234 -117 -1 c-65 0 -145
-7 -178 -14z"/>
<path d="M3970 1990 l0 -1110 210 0 210 0 0 343 c1 329 1 341 18 321 10 -12
112 -166 228 -343 l209 -321 263 0 c208 0 262 3 256 13 -4 6 -128 195 -274
419 l-268 406 215 329 c119 180 253 385 299 456 l83 127 -263 0 -264 0 -237
-362 c-131 -200 -244 -370 -251 -378 -12 -12 -14 82 -14 598 l0 612 -210 0
-210 0 0 -1110z"/>
<path d="M8790 1990 l0 -1110 210 0 210 0 0 1110 0 1110 -210 0 -210 0 0
-1110z"/>
<path d="M9650 1990 l0 -1110 210 0 210 0 0 1110 0 1110 -210 0 -210 0 0
-1110z"/>
<path d="M715 2686 c-175 -35 -290 -99 -425 -235 -203 -205 -292 -448 -277
-751 8 -153 36 -261 102 -395 167 -339 485 -524 832 -484 192 22 328 91 478
243 106 109 146 166 202 296 57 133 76 246 70 435 -4 136 -8 173 -31 249 -92
306 -325 550 -598 626 -96 27 -260 34 -353 16z m312 -501 c118 -58 204 -168
239 -308 19 -73 14 -203 -10 -283 -37 -119 -152 -242 -266 -285 -45 -17 -72
-20 -150 -17 -82 3 -104 8 -154 33 -245 124 -329 471 -171 709 120 181 326
242 512 151z"/>
<path d="M2597 2684 c-161 -29 -304 -110 -432 -245 -119 -126 -189 -252 -237
-425 -29 -106 -32 -391 -5 -498 85 -336 328 -600 626 -677 155 -41 387 -22
512 42 28 14 44 18 47 10 3 -8 67 -11 213 -11 l209 0 0 875 0 875 -210 0
c-118 0 -210 -4 -210 -9 0 -5 -31 4 -68 20 -131 55 -294 70 -445 43z m309
-493 c70 -33 132 -85 175 -147 l29 -43 0 -244 0 -245 -44 -59 c-53 -73 -145
-137 -220 -154 -85 -19 -203 -8 -271 26 -161 78 -271 289 -251 479 14 129 78
255 166 329 43 37 122 76 174 87 70 15 174 3 242 -29z"/>
<path d="M6720 2141 c0 -388 3 -506 15 -574 61 -350 318 -646 634 -728 155
-41 387 -22 512 42 28 14 44 18 47 10 3 -8 67 -11 213 -11 l209 0 0 875 0 875
-210 0 -210 0 0 -562 0 -563 -46 -58 c-51 -65 -139 -127 -208 -147 -75 -21
-211 -10 -279 23 -72 36 -154 117 -195 195 -58 109 -62 147 -62 655 l0 457
-210 0 -210 0 0 -489z"/>
</g>
</svg>
